<?xml version="1.0" standalone="no"?><!DOCTYPE svg PUBLIC "-//W3C//DTD SVG 1.1//EN" "http://www.w3.org/Graphics/SVG/1.1/DTD/svg11.dtd"><svg t="1732176897468" class="icon" viewBox="0 0 1024 1024" version="1.1" xmlns="http://www.w3.org/2000/svg" p-id="10576" xmlns:xlink="http://www.w3.org/1999/xlink" width="200" height="200"><path d="M612.551111 914.830222c-59.562667 0-115.313778-68.977778-157.013333-194.247111l-37.859556-114.318222-114.346666-37.973333c-125.212444-41.699556-194.247111-97.365333-194.247112-156.814223s68.920889-115.313778 194.218667-157.240889l385.308445-127.971555a298.410667 298.410667 0 0 1 93.297777-16.924445 127.175111 127.175111 0 0 1 108.714667 48.355556c29.383111 40.647111 32.028444 103.936 7.452444 178.176l-128.398222 384.853333c-41.699556 125.127111-97.393778 194.104889-157.127111 194.104889z m66.986667-613.546666a31.772444 31.772444 0 0 0-22.755556 9.301333l-162.133333 162.958222a32 32 0 1 0 45.226667 45.226667l162.133333-163.015111a32 32 0 0 0 0-45.198223 31.658667 31.658667 0 0 0-22.357333-9.272888z" fill="#29CC8B" p-id="10577"></path></svg>
